<svg width="128" height="128" viewBox="0 0 128 128" fill="none" xmlns="http://www.w3.org/2000/svg">
<path fill-rule="evenodd" clip-rule="evenodd" d="M32 21.3333H96C101.891 21.3333 106.667 26.109 106.667 32V96C106.667 101.891 101.891 106.667 96 106.667H32C26.109 106.667 21.3334 101.891 21.3334 96V32C21.3334 26.109 26.109 21.3333 32 21.3333ZM52.1667 46H76.8333C80.2391 46 83 48.7609 83 52.1667V76.8333C83 80.2391 80.2391 83 76.8333 83H52.1667C48.7609 83 46 80.2391 46 76.8333V52.1667C46 48.7609 48.7609 46 52.1667 46Z" fill="black"/>
<path fill-rule="evenodd" clip-rule="evenodd" d="M17.3334 32C17.3334 23.8998 23.8998 17.3333 32 17.3333H96C104.1 17.3333 110.667 23.8998 110.667 32V96C110.667 104.1 104.1 110.667 96 110.667H32C23.8998 110.667 17.3334 104.1 17.3334 96V32ZM32 25.3333C28.3181 25.3333 25.3334 28.3181 25.3334 32V96C25.3334 99.6819 28.3181 102.667 32 102.667H96C99.6819 102.667 102.667 99.6819 102.667 96V32C102.667 28.3181 99.6819 25.3333 96 25.3333H32ZM42 52.1667C42 46.5518 46.5518 42 52.1667 42H76.8333C82.4482 42 87 46.5518 87 52.1667V76.8333C87 82.4482 82.4482 87 76.8333 87H52.1667C46.5518 87 42 82.4482 42 76.8333V52.1667ZM52.1667 50C50.9701 50 50 50.97 50 52.1667V76.8333C50 78.03 50.9701 79 52.1667 79H76.8333C78.03 79 79 78.03 79 76.8333V52.1667C79 50.97 78.03 50 76.8333 50H52.1667Z" fill="black"/>
<path fill-rule="evenodd" clip-rule="evenodd" d="M80 6.66667C82.2092 6.66667 84 8.45753 84 10.6667V21.3333C84 23.5425 82.2092 25.3333 80 25.3333C77.7909 25.3333 76 23.5425 76 21.3333V10.6667C76 8.45753 77.7909 6.66667 80 6.66667Z" fill="black"/>
<path fill-rule="evenodd" clip-rule="evenodd" d="M80 102.667C82.2092 102.667 84 104.458 84 106.667V117.333C84 119.542 82.2092 121.333 80 121.333C77.7909 121.333 76 119.542 76 117.333V106.667C76 104.458 77.7909 102.667 80 102.667Z" fill="black"/>
<path fill-rule="evenodd" clip-rule="evenodd" d="M6.66669 80C6.66669 77.7909 8.45755 76 10.6667 76H21.3334C23.5425 76 25.3334 77.7909 25.3334 80C25.3334 82.2091 23.5425 84 21.3334 84H10.6667C8.45755 84 6.66669 82.2091 6.66669 80Z" fill="black"/>
<path fill-rule="evenodd" clip-rule="evenodd" d="M6.66669 48C6.66669 45.7909 8.45755 44 10.6667 44H21.3334C23.5425 44 25.3334 45.7909 25.3334 48C25.3334 50.2091 23.5425 52 21.3334 52H10.6667C8.45755 52 6.66669 50.2091 6.66669 48Z" fill="black"/>
<path fill-rule="evenodd" clip-rule="evenodd" d="M102.667 80C102.667 77.7909 104.458 76 106.667 76H117.333C119.542 76 121.333 77.7909 121.333 80C121.333 82.2091 119.542 84 117.333 84H106.667C104.458 84 102.667 82.2091 102.667 80Z" fill="black"/>
<path fill-rule="evenodd" clip-rule="evenodd" d="M102.667 48C102.667 45.7909 104.458 44 106.667 44H117.333C119.542 44 121.333 45.7909 121.333 48C121.333 50.2091 119.542 52 117.333 52H106.667C104.458 52 102.667 50.2091 102.667 48Z" fill="black"/>
<path fill-rule="evenodd" clip-rule="evenodd" d="M48 6.66667C50.2092 6.66667 52 8.45753 52 10.6667V21.3333C52 23.5425 50.2092 25.3333 48 25.3333C45.7909 25.3333 44 23.5425 44 21.3333V10.6667C44 8.45753 45.7909 6.66667 48 6.66667Z" fill="black"/>
<path fill-rule="evenodd" clip-rule="evenodd" d="M48 102.667C50.2092 102.667 52 104.458 52 106.667V117.333C52 119.542 50.2092 121.333 48 121.333C45.7909 121.333 44 119.542 44 117.333V106.667C44 104.458 45.7909 102.667 48 102.667Z" fill="black"/>
</svg>
